<?xml version="1.0" encoding="UTF-8" standalone="no"?>
<!-- Created with Inkscape (http://www.inkscape.org/) -->

<svg
   width="1280mm"
   height="640mm"
   viewBox="0 0 1280 640"
   version="1.1"
   id="svg1"
   xml:space="preserve"
   inkscape:version="1.4.2 (ebf0e940d0, 2025-05-08)"
   sodipodi:docname="drawing.svg"
   xmlns:inkscape="http://www.inkscape.org/namespaces/inkscape"
   xmlns:sodipodi="http://sodipodi.sourceforge.net/DTD/sodipodi-0.dtd"
   xmlns="http://www.w3.org/2000/svg"
   xmlns:svg="http://www.w3.org/2000/svg"><sodipodi:namedview
     id="namedview1"
     pagecolor="#ffffff"
     bordercolor="#000000"
     borderopacity="0.25"
     inkscape:showpageshadow="2"
     inkscape:pageopacity="0.0"
     inkscape:pagecheckerboard="0"
     inkscape:deskcolor="#d1d1d1"
     inkscape:document-units="mm"
     inkscape:zoom="0.19042741"
     inkscape:cx="2336.8485"
     inkscape:cy="1381.1037"
     inkscape:window-width="1920"
     inkscape:window-height="1011"
     inkscape:window-x="0"
     inkscape:window-y="32"
     inkscape:window-maximized="1"
     inkscape:current-layer="layer1" /><defs
     id="defs1"><radialGradient
       id="face_1_-9"
       cx="63.599998"
       cy="512.90002"
       r="56.959702"
       gradientTransform="translate(0,-450)"
       gradientUnits="userSpaceOnUse">
		<stop
   offset="0.5"
   style="stop-color:#FDE030"
   id="stop1-1" />
		<stop
   offset="0.92"
   style="stop-color:#F7C02B"
   id="stop2-2" />
		<stop
   offset="1"
   style="stop-color:#F4A223"
   id="stop3-7" />
	</radialGradient><radialGradient
       id="SVGID_1_-0"
       cx="94.520203"
       cy="89.652"
       r="23.9109"
       fx="85.857002"
       fy="82.640198"
       gradientTransform="matrix(1,0,0,-1,0,130)"
       gradientUnits="userSpaceOnUse">
				<stop
   offset="0.2"
   style="stop-color:#FF4081"
   id="stop4-9" />
				<stop
   offset="0.88"
   style="stop-color:#CC1775"
   id="stop5-3" />
			</radialGradient><radialGradient
       id="face_1_-9-3"
       cx="63.599998"
       cy="512.90002"
       r="56.959702"
       gradientTransform="translate(0,-450)"
       gradientUnits="userSpaceOnUse">
		<stop
   offset="0.5"
   style="stop-color:#FDE030"
   id="stop1-1-1" />
		<stop
   offset="0.92"
   style="stop-color:#F7C02B"
   id="stop2-2-9" />
		<stop
   offset="1"
   style="stop-color:#F4A223"
   id="stop3-7-4" />
	</radialGradient><radialGradient
       id="SVGID_1_-0-7"
       cx="94.520203"
       cy="89.652"
       r="23.9109"
       fx="85.857002"
       fy="82.640198"
       gradientTransform="matrix(1,0,0,-1,0,130)"
       gradientUnits="userSpaceOnUse">
				<stop
   offset="0.2"
   style="stop-color:#FF4081"
   id="stop4-9-8" />
				<stop
   offset="0.88"
   style="stop-color:#CC1775"
   id="stop5-3-4" />
			</radialGradient></defs><g
     inkscape:label="Layer 1"
     inkscape:groupmode="layer"
     id="layer1"><rect
       style="fill:#ffbf0a;fill-opacity:1;stroke-width:2.12039"
       id="rect1"
       width="1280"
       height="640"
       x="0"
       y="0" /><g
       id="g1"
       transform="matrix(4.4900058,0,0,4.4900058,354.43563,37.578635)"><g
         id="gold">
	
		<radialGradient
   id="face_1_"
   cx="63.599998"
   cy="512.90002"
   r="56.959702"
   gradientTransform="translate(0,-450)"
   gradientUnits="userSpaceOnUse">
		<stop
   offset="0.5"
   style="stop-color:#FDE030"
   id="stop1" />
		<stop
   offset="0.92"
   style="stop-color:#F7C02B"
   id="stop2" />
		<stop
   offset="1"
   style="stop-color:#F4A223"
   id="stop3" />
	</radialGradient>
	<path
   id="face"
   style="fill:url(#face_1_)"
   d="M 63.6,118.8 C 35.7,118.8 5.6,101.3 5.6,62.9 5.6,24.5 35.7,7 63.6,7 c 15.5,0 29.8,5.1 40.4,14.4 11.5,10.2 17.6,24.6 17.6,41.5 0,16.9 -6.1,31.2 -17.6,41.4 -10.6,9.3 -25,14.5 -40.4,14.5 z" />
	<path
   style="fill:#eb8f00"
   d="m 111.49,29.67 c 5.33,8.6 8.11,18.84 8.11,30.23 0,16.9 -6.1,31.2 -17.6,41.4 -10.6,9.3 -25,14.5 -40.4,14.5 -18.06,0 -37,-7.35 -48.18,-22.94 10.76,17.66 31,25.94 50.18,25.94 15.4,0 29.8,-5.2 40.4,-14.5 11.5,-10.2 17.6,-24.5 17.6,-41.4 0,-12.74 -3.47,-24.06 -10.11,-33.23 z"
   id="path3" />
</g><g
         id="facial_expressions">
	<g
   id="grinning-face-with-star-eyes">
		<g
   id="eyes">
			
				<radialGradient
   id="SVGID_1_"
   cx="94.520203"
   cy="89.652"
   r="23.9109"
   fx="85.857002"
   fy="82.640198"
   gradientTransform="matrix(1,0,0,-1,0,130)"
   gradientUnits="userSpaceOnUse">
				<stop
   offset="0.2"
   style="stop-color:#FF4081"
   id="stop4" />
				<stop
   offset="0.88"
   style="stop-color:#CC1775"
   id="stop5" />
			</radialGradient>
			<path
   style="fill:url(#SVGID_1_)"
   d="m 95.92,17.13 -8.06,10.7 c -0.4,0.52 -1.02,0.82 -1.68,0.79 L 72.8,28.05 c -1.1,-0.05 -2.04,0.81 -2.09,1.91 -0.02,0.44 0.11,0.87 0.36,1.23 l 7.69,11 c 0.37,0.53 0.46,1.2 0.24,1.81 l -4.68,12.56 c -0.38,1.04 0.15,2.19 1.18,2.57 0.41,0.15 0.85,0.16 1.27,0.04 l 12.81,-3.92 c 0.63,-0.19 1.31,-0.06 1.83,0.35 l 10.49,8.33 c 0.87,0.68 2.12,0.54 2.81,-0.33 0.27,-0.35 0.42,-0.77 0.43,-1.21 L 105.37,49 c 0.01,-0.66 0.35,-1.27 0.9,-1.63 L 117.43,40 c 0.92,-0.61 1.18,-1.85 0.57,-2.77 -0.24,-0.37 -0.6,-0.65 -1.02,-0.79 L 104.31,32.08 C 103.67,31.87 103.18,31.35 103,30.7 L 99.44,17.79 c -0.3,-1.06 -1.41,-1.68 -2.47,-1.38 -0.42,0.12 -0.79,0.37 -1.05,0.72 z"
   id="path5" />
		</g>
	</g>
	<path
   style="fill:#f44336"
   d="m 99.81,16.89 3,13.92 c 0.23,1.07 1.02,1.93 2.07,2.24 l 13.38,4 c 1,0.36 1.52,1.46 1.16,2.46 -0.14,0.4 -0.41,0.73 -0.77,0.96 l -12,6.52 C 105.64,47.5 105,48.54 105,49.67 l 0.12,14.59 c -0.03,1.05 -0.91,1.88 -1.97,1.85 -0.42,-0.01 -0.83,-0.16 -1.15,-0.43 L 91.52,56.27 c -0.81,-0.74 -1.96,-0.97 -3,-0.61 l -13.3,4.53 c -1.02,0.29 -2.08,-0.3 -2.38,-1.32 -0.12,-0.4 -0.1,-0.83 0.06,-1.22 l 5.86,-13.37 c 0.44,-1.02 0.29,-2.19 -0.4,-3.06 L 69.85,30.49 c -0.59,-0.89 -0.35,-2.08 0.53,-2.68 0.34,-0.23 0.75,-0.34 1.17,-0.32 l 13.89,1.58 c 1.09,0.12 2.15,-0.36 2.78,-1.25 L 96.44,16.2 c 0.65,-0.84 1.86,-0.99 2.69,-0.33 0.34,0.26 0.57,0.61 0.68,1.02 z"
   id="path6" />
	<path
   style="fill:#ff847a"
   d="m 96.63,30.34 1,-9.6 c 0.07,-0.53 0.15,-1.45 1,-1.28 0.67,0.14 0.74,1.59 0.74,1.59 l 1.3,8.14 c 0.48,3.09 -0.16,4 -1.32,4.36 -1.35,0.45 -3,-0.46 -2.72,-3.21 z"
   id="path7" />
	<path
   style="fill:#c62828"
   d="m 105.65,46 9.47,-4.69 c 0.47,-0.26 1.31,-0.65 0.86,-1.38 -0.37,-0.57 -1.76,-0.14 -1.76,-0.14 l -7.71,1.33 c -2.28,0.3 -3.92,1.1 -4.33,2.45 -0.53,1.74 0.82,3.49 3.47,2.43 z"
   id="path8" />
	<path
   style="fill:#f44336"
   d="m 32.5,14.5 8,11.74 c 0.62,0.9 1.67,1.39 2.76,1.29 l 13.92,-1.37 c 1.06,-0.03 1.95,0.8 1.98,1.86 0.01,0.41 -0.1,0.81 -0.33,1.14 L 50.2,39.79 c -0.7,0.86 -0.87,2.03 -0.44,3.05 l 5.65,13.45 c 0.37,0.99 -0.13,2.1 -1.12,2.47 -0.4,0.15 -0.83,0.16 -1.24,0.04 L 39.78,54.07 c -1.03,-0.37 -2.18,-0.16 -3,0.56 L 26.2,63.88 c -0.82,0.66 -2.02,0.53 -2.69,-0.29 -0.27,-0.33 -0.42,-0.75 -0.42,-1.17 L 23.42,47.83 C 23.45,46.72 22.86,45.7 21.9,45.15 L 10,38.45 C 9.1,37.91 8.8,36.73 9.35,35.83 9.58,35.44 9.95,35.14 10.38,35 l 13.45,-3.82 c 1.04,-0.29 1.84,-1.13 2.1,-2.18 l 3.19,-13.87 c 0.29,-1.02 1.35,-1.61 2.37,-1.32 0.4,0.11 0.76,0.36 1.01,0.69 z"
   id="path9" />
	<path
   style="fill:#ff847a"
   d="m 34.66,28.15 -2.74,-9.26 c -0.13,-0.52 -0.41,-1.4 0.43,-1.56 0.67,-0.13 1.3,1.19 1.3,1.19 l 4.28,7 c 1.63,2.68 1.37,3.75 0.44,4.53 -0.93,0.78 -2.93,0.75 -3.71,-1.9 z"
   id="path10" />
	<path
   style="fill:#c62828"
   d="m 48.94,39.16 7,-7.94 c 0.34,-0.41 1,-1.09 0.26,-1.59 -0.55,-0.4 -1.67,0.53 -1.67,0.53 l -6.63,4.16 c -2,1.14 -3.21,2.5 -3.07,3.91 0.17,1.86 2.07,2.96 4.11,0.93 z"
   id="path11" />
	<path
   style="fill:#422b0d"
   d="M 102.07,71.62 C 100.67,69.09 97.63,67.98 94.93,69 84.67,71.99 74.03,73.48 63.34,73.43 52.65,73.48 42.01,71.99 31.75,69 c -2.69,-1.02 -5.73,0.08 -7.13,2.6 -1.36,2.51 -0.38,5.42 0.77,7.93 6.42,14.1 20.57,22.54 37.87,22.59 h 0.16 c 17.3,0 31.45,-8.49 37.88,-22.59 1.14,-2.53 2.13,-5.4 0.77,-7.91 z"
   id="path12" />
	<path
   style="fill:#422b0d"
   d="M 63.42,100.89"
   id="path13" />
	<path
   style="fill:#422b0d"
   d="M 63.49,74.7"
   id="path14" />
	<path
   style="fill:#422b0d"
   d="M 63.49,74.7"
   id="path15" />
	<path
   style="fill:#422b0d"
   d="M 63.42,100.89"
   id="path16" />
	<path
   style="fill:#ed7770"
   d="M 79.35,98.14 C 78.98,97.8 78.6,97.49 78.22,97.14 74.14,93.55 68.86,91.62 63.42,91.73 57.82,91.64 52.37,93.5 48,97 c -0.38,0.31 -0.78,0.61 -1.15,1 -0.37,0.39 -0.57,0.67 -0.81,1 5.5,2.15 11.36,3.25 17.27,3.22 h 0.16 c 5.66,0 11.27,-1.01 16.57,-3 -0.2,-0.38 -0.43,-0.74 -0.69,-1.08 z"
   id="path17" />
	<path
   style="fill:#ffffff"
   d="M 94.93,69 C 84.67,71.99 74.03,73.48 63.34,73.43 52.65,73.48 42.01,71.99 31.75,69 c -2.69,-1.02 -5.73,0.08 -7.13,2.6 -0.2,0.38 -0.36,0.78 -0.46,1.19 0.33,0.17 0.71,0.34 1.16,0.52 12.04,6.03 25.35,9.09 38.81,8.93 12.91,0.15 25.67,-2.66 37.33,-8.2 0.47,-0.2 0.86,-0.39 1.21,-0.57 -0.08,-0.65 -0.29,-1.29 -0.6,-1.87 -1.4,-2.52 -4.44,-3.63 -7.14,-2.6 z"
   id="path18" />
	<path
   style="fill:#eb8f00"
   d="M 102.11,71.63 C 100.69,69.1 97.64,67.98 94.92,69 84.66,71.99 74.02,73.48 63.34,73.43 52.65,73.48 42.01,71.99 31.75,69 c -2.69,-1.02 -5.73,0.08 -7.13,2.6 -1.36,2.51 -0.38,5.42 0.77,7.93 0.51,1.13 1.08,2.24 1.71,3.31 0,0 -2.1,-7.78 -0.28,-10.04 0.62,-0.96 1.66,-1.56 2.8,-1.62 0.47,0 0.93,0.08 1.38,0.22 10.44,3.07 21.27,4.62 32.16,4.6 h 0.35 c 10.89,0.02 21.72,-1.53 32.16,-4.6 0.45,-0.14 0.91,-0.22 1.38,-0.22 1.14,0.06 2.19,0.66 2.81,1.62 1.85,2.26 -0.28,10.07 -0.28,10.07 0.62,-1.07 1.24,-2.17 1.76,-3.31 1.14,-2.51 2.13,-5.41 0.77,-7.93 z"
   id="path19" />
</g></g></g></svg>
