<?xml version="1.0" encoding="UTF-8" standalone="no"?>
<svg
   viewBox="0 -3.268 128 128"
   width="128"
   height="128"
   version="1.1"
   id="svg1"
   sodipodi:docname="bluesky.svg"
   inkscape:version="1.4.2 (f4327f4, 2025-05-13)"
   xmlns:inkscape="http://www.inkscape.org/namespaces/inkscape"
   xmlns:sodipodi="http://sodipodi.sourceforge.net/DTD/sodipodi-0.dtd"
   xmlns="http://www.w3.org/2000/svg"
   xmlns:svg="http://www.w3.org/2000/svg">
  <defs
     id="defs1" />
  <sodipodi:namedview
     id="namedview1"
     pagecolor="#ffffff"
     bordercolor="#000000"
     borderopacity="0.25"
     inkscape:showpageshadow="2"
     inkscape:pageopacity="0.0"
     inkscape:pagecheckerboard="0"
     inkscape:deskcolor="#d1d1d1"
     inkscape:zoom="5.1648"
     inkscape:cx="57.698265"
     inkscape:cy="61.086586"
     inkscape:window-width="1920"
     inkscape:window-height="1009"
     inkscape:window-x="-8"
     inkscape:window-y="-8"
     inkscape:window-maximized="1"
     inkscape:current-layer="svg1" />
  <path
     fill="#0085ff"
     d="m 30.011875,14.866817 c 13.756875,10.363125 28.55625,31.372499 33.988124,42.646875 v 29.778749 c 0,-0.63375 -0.243749,0.0825 -0.768749,1.625625 -2.835001,8.355 -13.908751,40.963124 -39.230625,14.894994 C 10.6675,90.088066 16.84,76.363066 41.109999,72.219316 27.225624,74.589316 11.61625,70.672441 7.33375,55.316191 6.0999999,50.898691 4,23.688692 4,20.013692 4,1.6049418 20.085625,7.3911918 30.011875,14.866817 Z m 67.976252,0 C 84.231249,25.229942 69.431874,46.239316 63.999999,57.513692 v 29.778749 c 0,-0.63375 0.24375,0.0825 0.76875,1.625625 2.835001,8.355 13.908751,40.963124 39.230621,14.894994 C 117.3325,90.088066 111.16,76.363066 86.89,72.219316 c 13.88437,2.37 29.49375,-1.546875 33.77625,-16.903125 C 121.9,50.898691 124,23.688692 124,20.013692 124,1.6049418 107.91625,7.3911918 97.988127,14.866817 Z"
     id="path1"
     style="stroke-width:1" />
</svg>
