<?xml version="1.0" encoding="UTF-8" standalone="no"?>
<svg
   fill="none"
   viewBox="0 0 128 128"
   version="1.1"
   id="svg3"
   sodipodi:docname="mastodon.svg"
   width="128"
   height="128"
   inkscape:version="1.4.2 (ebf0e940d0, 2025-05-08)"
   xmlns:inkscape="http://www.inkscape.org/namespaces/inkscape"
   xmlns:sodipodi="http://sodipodi.sourceforge.net/DTD/sodipodi-0.dtd"
   xmlns="http://www.w3.org/2000/svg"
   xmlns:svg="http://www.w3.org/2000/svg">
  <sodipodi:namedview
     id="namedview3"
     pagecolor="#ffffff"
     bordercolor="#000000"
     borderopacity="0.25"
     inkscape:showpageshadow="2"
     inkscape:pageopacity="0.0"
     inkscape:pagecheckerboard="0"
     inkscape:deskcolor="#d1d1d1"
     inkscape:zoom="4.3895013"
     inkscape:cx="56.270629"
     inkscape:cy="54.903731"
     inkscape:window-width="1920"
     inkscape:window-height="1011"
     inkscape:window-x="0"
     inkscape:window-y="32"
     inkscape:window-maximized="1"
     inkscape:current-layer="svg3" />
  <g
     id="g3"
     transform="matrix(1.8461402,0,0,1.8461402,7.6928486,3.9999992)"
     style="stroke-width:0.541671">
    <path
       fill="url(#a)"
       d="M 60.754,14.39 C 59.814,7.406 53.727,1.903 46.512,0.836 45.294,0.656 40.682,0 29.997,0 h -0.08 C 19.23,0 16.938,0.656 15.72,0.836 8.705,1.873 2.299,6.82 0.745,13.886 c -0.748,3.48 -0.828,7.338 -0.689,10.877 0.198,5.075 0.237,10.142 0.697,15.197 a 71.5,71.5 0 0 0 1.664,9.968 c 1.477,6.056 7.458,11.096 13.317,13.152 a 35.7,35.7 0 0 0 19.484,1.028 28,28 0 0 0 2.107,-0.576 c 1.572,-0.5 3.413,-1.057 4.766,-2.038 a 0.15,0.15 0 0 0 0.062,-0.118 v -4.899 a 0.15,0.15 0 0 0 -0.055,-0.111 0.14,0.14 0 0 0 -0.122,-0.028 54,54 0 0 1 -12.644,1.478 c -7.328,0 -9.298,-3.478 -9.863,-4.925 a 15.3,15.3 0 0 1 -0.857,-3.882 0.142,0.142 0 0 1 0.178,-0.145 53,53 0 0 0 12.437,1.477 c 1.007,0 2.012,0 3.02,-0.026 4.213,-0.119 8.654,-0.334 12.8,-1.144 0.103,-0.02 0.206,-0.038 0.295,-0.065 6.539,-1.255 12.762,-5.196 13.394,-15.176 0.024,-0.393 0.083,-4.115 0.083,-4.523 0.003,-1.386 0.446,-9.829 -0.065,-15.017"
       id="path1"
       style="fill:#5f56ee;stroke-width:0.541671;fill-opacity:1" />
    <path
       fill="#ffffff"
       d="m 50.394,22.237 v 17.35 H 43.52 V 22.749 c 0,-3.545 -1.478,-5.353 -4.483,-5.353 -3.303,0 -4.958,2.139 -4.958,6.364 v 9.217 H 27.244 V 23.76 c 0,-4.225 -1.657,-6.364 -4.96,-6.364 -2.988,0 -4.48,1.808 -4.48,5.353 v 16.84 H 10.93 V 22.237 q 0,-5.318 2.715,-8.45 c 1.868,-2.082 4.317,-3.152 7.358,-3.152 3.519,0 6.178,1.354 7.951,4.057 l 1.711,2.871 1.714,-2.871 c 1.773,-2.704 4.432,-4.056 7.945,-4.056 3.038,0 5.487,1.069 7.36,3.152 q 2.714,3.128 2.71,8.449"
       id="path2"
       style="stroke-width:0.541671" />
  </g>
  <defs
     id="defs3">
    <linearGradient
       id="a"
       x1="30.5"
       x2="30.5"
       y1="0"
       y2="65"
       gradientUnits="userSpaceOnUse">
      <stop
         stop-color="#6364FF"
         id="stop2" />
      <stop
         offset="1"
         stop-color="#563ACC"
         id="stop3" />
    </linearGradient>
  </defs>
</svg>
